<mxfile host="65bd71144e">
    <diagram id="toQt2H9Y2pJtG_-MK14S" name="Page-1">
        <mxGraphModel dx="998" dy="551" grid="1" gridSize="10" guides="1" tooltips="1" connect="1" arrows="1" fold="1" page="1" pageScale="1" pageWidth="827" pageHeight="1169" background="#ffffff" math="0" shadow="0">
            <root>
                <mxCell id="0"/>
                <mxCell id="1" parent="0"/>
                <mxCell id="2" value="customer_id&lt;br&gt;PK" style="html=1;dashed=0;whitespace=wrap;" parent="1" vertex="1">
                    <mxGeometry x="450" y="220" width="100" height="50" as="geometry"/>
                </mxCell>
                <mxCell id="3" value="supplier_id&lt;br&gt;pk" style="html=1;dashed=0;whitespace=wrap;" parent="1" vertex="1">
                    <mxGeometry x="340" y="90" width="100" height="50" as="geometry"/>
                </mxCell>
                <mxCell id="4" value="" style="html=1;dashed=0;whitespace=wrap;" parent="1" vertex="1">
                    <mxGeometry x="230" y="340" width="100" height="50" as="geometry"/>
                </mxCell>
            </root>
        </mxGraphModel>
    </diagram>
</mxfile>